<svg width="233" height="42" fill="none" xmlns="http://www.w3.org/2000/svg"><g clip-path="url('#clip0_204_58')"><rect x="1" width="233" height="42" rx="21" fill="#D9D9D9"/><path d="M90.25 9.125a113.057 113.057 0 0 1-1.375 3.031c-.188.396-.344.75-.469 1.063-.104.229-.24.541-.406.937-.167.354-.375.823-.625 1.406-.23.563-.531 1.292-.906 2.188a11.021 11.021 0 0 0-.688-2.031 9.542 9.542 0 0 0-.875-1.531 4.92 4.92 0 0 0-1-1.063 5.985 5.985 0 0 0-1-.719 5.646 5.646 0 0 0-2.437-.687c-1.125.062-2.01.25-2.656.562-.626.292-1.084.636-1.376 1.031-.291.376-.447.771-.468 1.188-.021.396.031.73.156 1 .104.25.469.542 1.094.875.646.333 1.416.719 2.312 1.156a62.11 62.11 0 0 1 2.938 1.438c1.041.52 2 1.104 2.875 1.75.896.625 1.646 1.312 2.25 2.062.625.73.969 1.51 1.031 2.344.063 1.063.052 2.02-.031 2.875-.084.854-.375 1.583-.875 2.188-.5.604-1.281 1.083-2.344 1.437-1.042.354-2.49.573-4.344.656-1.916.084-3.49-.02-4.719-.312s-2.229-.688-3-1.188c-.75-.5-1.312-1.052-1.687-1.656a8.202 8.202 0 0 1-.781-1.719 11.542 11.542 0 0 1-.344-1.437c-.063-.417-.167-.667-.313-.75a6.025 6.025 0 0 0-.5-.282 3.22 3.22 0 0 0-.468-.218 5.2 5.2 0 0 0-.5-.219l9.094-1.469c-.521.417-.928.802-1.22 1.157-.27.354-.478.666-.624.937a3.606 3.606 0 0 0-.344.875c-.042.292.052.656.281 1.094.23.437.542.864.938 1.281.416.396.896.73 1.437 1 .542.27 1.104.385 1.688.344.729-.063 1.323-.24 1.781-.532a3.033 3.033 0 0 0 1.031-1.156c.25-.458.396-.958.438-1.5a4.57 4.57 0 0 0-.156-1.593 4.768 4.768 0 0 0-.626-1.5 4.419 4.419 0 0 0-1.03-1.188c-.355-.25-.907-.49-1.657-.719-.73-.229-1.552-.479-2.469-.75a48.674 48.674 0 0 1-2.781-.937 12.353 12.353 0 0 1-2.563-1.313 6.625 6.625 0 0 1-1.812-1.843c-.438-.709-.604-1.563-.5-2.563.083-.854.354-1.563.813-2.125a5.057 5.057 0 0 1 1.78-1.375 9.584 9.584 0 0 1 2.407-.781c.896-.167 1.802-.26 2.719-.281a24.112 24.112 0 0 1 2.75.03c.916.063 1.74.136 2.469.22.729.083 1.343.166 1.843.25.521.062.844.104.969.124a8.463 8.463 0 0 0 1.625-.03c.48-.042 1-.136 1.563-.282a6.75 6.75 0 0 0 1.687-.75Zm8.125 17.844c.583 0 1.125-.063 1.625-.188.417-.104.812-.27 1.188-.5.395-.25.656-.614.781-1.093.416.083.771.156 1.062.218.292.042.542.084.75.125.229.063.427.104.594.125.167.042.365.084.594.125.208.042.458.094.75.157.312.041.677.104 1.093.187a2.227 2.227 0 0 0-.968.094 11.45 11.45 0 0 0-.906.343 5.167 5.167 0 0 0-.938.532 4.517 4.517 0 0 0-.656.562c-.229.25-.563.49-1 .719-.438.23-1.021.427-1.75.594-.709.146-1.625.198-2.75.156-1.354-.042-2.49-.281-3.406-.719-.917-.458-1.657-1.01-2.22-1.656A6.382 6.382 0 0 1 91 24.594c-.25-.771-.385-1.49-.406-2.157-.021-.666.177-1.364.594-2.093.416-.73 1-1.396 1.75-2 .77-.604 1.697-1.094 2.78-1.469 1.084-.396 2.272-.594 3.563-.594.75 0 1.438.094 2.063.282a7.296 7.296 0 0 1 1.75.687c.541.292 1.01.625 1.406 1a6.9 6.9 0 0 1 1 1.094c.271.396.5.812.688 1.25.166.375.302.802.406 1.281.104.48.135.969.094 1.469-1.584.041-2.865.073-3.844.093-.959.021-1.709.032-2.25.032h-2.469c-.375 0-.865.01-1.469.031-.604.02-1.344.052-2.219.094.105.833.365 1.479.782 1.937.437.438.896.771 1.375 1 .541.25 1.135.396 1.781.438Zm-2.813-5.625c.667.041 1.22.073 1.657.093.458.021.833.042 1.125.063.312.02.562.031.75.031h.781c.521 0 1.49-.031 2.906-.093-.062-.917-.26-1.615-.593-2.094-.313-.48-.646-.834-1-1.063a3.147 3.147 0 0 0-1.376-.437c-1.354.02-2.364.302-3.03.843-.647.542-1.053 1.428-1.22 2.657Zm14.719-2c.104-.125.167-.354.188-.688a7.53 7.53 0 0 1 .25-1.187c.146-.438.385-.896.719-1.375.333-.48.874-.927 1.624-1.344.73-.417 1.438-.667 2.126-.75a5.621 5.621 0 0 1 1.968.094 6.377 6.377 0 0 1 1.75.687c.563.313 1.073.656 1.532 1.031.312.25.562.615.75 1.094.187.459.333.98.437 1.563.104.583.177 1.198.219 1.843.062.625.104 1.24.125 1.844.021.584.031 1.125.031 1.625.021.48.062.875.125 1.188.083.458.229.854.437 1.187.209.313.438.584.688.813.25.208.5.375.75.5s.469.218.656.281c.125.063.24.104.344.125.208.083.354.083.438 0-.126.292-.24.542-.344.75a10 10 0 0 0-.25.531 6.29 6.29 0 0 1-.219.407c-.063.125-.135.24-.219.343a2.76 2.76 0 0 1-.25.344 6.9 6.9 0 0 0-.312.406 5.37 5.37 0 0 1-.782-.375 33.64 33.64 0 0 1-.624-.406 8.076 8.076 0 0 1-.626-.438 4.031 4.031 0 0 1-.531-.5 87.462 87.462 0 0 0-.469-.53 3.132 3.132 0 0 1-.374-.626c-.126.271-.428.657-.907 1.157-.458.5-1.062.958-1.812 1.375-.75.395-1.625.677-2.625.843-.979.167-2.063.052-3.25-.343a5.652 5.652 0 0 1-1.469-.72 5.35 5.35 0 0 1-1.187-1.187 4.817 4.817 0 0 1-.688-1.562c-.125-.604-.115-1.271.031-2 .146-.73.407-1.344.781-1.844.376-.5.823-.906 1.344-1.219a6.576 6.576 0 0 1 1.75-.718 12.529 12.529 0 0 1 2-.344c.542-.021 1.084.01 1.625.093.459.084.938.24 1.438.47.5.208.927.53 1.281.968-.021-1.104-.062-1.98-.125-2.625a30.221 30.221 0 0 0-.125-1.531c-.083-.417-.156-.709-.219-.875a17.494 17.494 0 0 1-.343-.5 1.874 1.874 0 0 0-.407-.5 1.903 1.903 0 0 0-.625-.407 1.94 1.94 0 0 0-.875-.125c-.354.021-.635.115-.843.282a1.926 1.926 0 0 0-.5.593 1.857 1.857 0 0 0-.188.688c-.021.25-.01.469.031.656.042.125.104.26.188.407.083.125.198.26.343.406.146.146.344.27.594.375a69.48 69.48 0 0 1-1.281.156c-.375.02-.698.052-.969.094-.312.041-.583.073-.812.093-.229.021-.5.063-.813.125l-1 .157c-.396.062-.854.146-1.375.25.125-.146.24-.282.344-.407.104-.145.198-.27.281-.375a5.24 5.24 0 0 1 .25-.343Zm4.688 3.718c-.375.021-.75.115-1.125.282a2.869 2.869 0 0 0-1 .656c-.292.27-.542.594-.75.969-.188.354-.282.75-.282 1.187 0 .438.105.823.313 1.157.229.312.521.572.875.78.375.21.771.334 1.188.376.437.041.864 0 1.281-.125a3.558 3.558 0 0 0 1.125-.688c.354-.333.656-.687.906-1.062.25-.396.427-.782.531-1.157.104-.395.115-.718.031-.968-.166-.542-.541-.917-1.124-1.125-.584-.23-1.24-.323-1.969-.282Zm23.937-8.906c-.187.459-.354.875-.5 1.25-.125.375-.239.709-.344 1a43.38 43.38 0 0 1-.281.875c-.083.292-.177.625-.281 1-.104.334-.24.75-.406 1.25-.146.48-.323 1.052-.532 1.719-.166-1-.468-1.792-.906-2.375-.437-.604-.885-1.073-1.344-1.406a5.564 5.564 0 0 0-1.75-.813c-1.124-.187-1.937-.166-2.437.063-.5.229-.833.52-1 .875a7.075 7.075 0 0 0-.281.562 6.024 6.024 0 0 0-.219.657 2.52 2.52 0 0 0-.031.687c.021.23.114.417.281.563.104.104.375.25.813.437l1.562.594c.625.208 1.281.437 1.969.687.708.25 1.375.5 2 .75s1.166.5 1.625.75c.458.25.76.48.906.688.125.208.26.49.406.843.167.334.282.709.344 1.125.083.396.104.813.062 1.25a3.12 3.12 0 0 1-.343 1.25c-.209.417-.542.803-1 1.157-.438.354-1.031.646-1.781.875-.876.27-1.719.343-2.532.218a11.866 11.866 0 0 1-2.25-.562c-.666-.25-1.25-.49-1.75-.719-.5-.25-.854-.354-1.062-.312-.229.041-.49.156-.782.343a12.43 12.43 0 0 0-.843.594c-.25.188-.469.365-.657.532-.187.145-.281.197-.281.156 0-.042.031-.167.094-.375.083-.209.167-.459.25-.75.104-.313.198-.646.281-1 .104-.375.177-.73.219-1.063l.156-1c.042-.354.094-.781.157-1.281.083-.52.177-1.146.281-1.875a5.9 5.9 0 0 0 .437 1.406c.209.396.406.74.594 1.032.229.333.448.614.656.843.313.292.677.563 1.094.813.438.25.875.468 1.312.656.438.167.855.27 1.25.313.396.041.73 0 1-.125.271-.125.5-.355.688-.688a3.37 3.37 0 0 0 .438-1.094c.083-.396.114-.77.093-1.125-.021-.375-.114-.677-.281-.906-.125-.146-.417-.333-.875-.563a24.25 24.25 0 0 0-1.594-.75c-.604-.27-1.25-.552-1.937-.843a55.955 55.955 0 0 1-1.906-.875 16.07 16.07 0 0 1-1.469-.875c-.375-.292-.584-.552-.625-.782a15.266 15.266 0 0 1-.094-1.093c-.021-.417 0-.823.062-1.219.084-.417.23-.813.438-1.188.229-.375.562-.687 1-.937.292-.167.677-.292 1.156-.375a9.344 9.344 0 0 1 1.594-.125 13.4 13.4 0 0 1 1.812.063c.626.041 1.219.104 1.782.187.583.063 1.104.146 1.562.25.479.104.844.198 1.094.281.292.104.604.115.938.031.291-.062.604-.197.937-.406.333-.208.677-.583 1.031-1.125Zm9.5 3.844c.542 0 1.104.104 1.688.313a8.679 8.679 0 0 1 1.687.75 9.455 9.455 0 0 1 1.469.968c.458.334.833.657 1.125.969.521.563.875 1.323 1.063 2.281.208.938.25 1.907.124 2.907a8.163 8.163 0 0 1-.874 2.78c-.459.876-1.094 1.522-1.907 1.938-.583.292-1.156.521-1.719.688-.562.166-1.104.291-1.624.375a9.332 9.332 0 0 1-1.469.125c-.459 0-.854-.01-1.188-.032-.625-.041-1.281-.26-1.969-.656a10.387 10.387 0 0 1-1.906-1.468 10.097 10.097 0 0 1-1.5-1.907c-.416-.708-.666-1.375-.75-2a11.457 11.457 0 0 1-.062-2.687 5.537 5.537 0 0 1 .906-2.594c.542-.792 1.354-1.448 2.438-1.969 1.104-.52 2.593-.781 4.468-.781Zm-1.031 12.125c.229.042.542-.01.937-.156a3.91 3.91 0 0 0 1.157-.782 4.894 4.894 0 0 0 1.031-1.343c.312-.563.5-1.24.562-2.032.063-.77.063-1.479 0-2.125a7.444 7.444 0 0 0-.281-1.687c-.146-.5-.312-.906-.5-1.219-.187-.312-.385-.531-.593-.656a4.873 4.873 0 0 0-1.282-.438c-.5-.125-.927-.104-1.281.063-.167.083-.375.26-.625.531s-.5.615-.75 1.032a8.51 8.51 0 0 0-.688 1.375 8.519 8.519 0 0 0-.406 1.625 8.595 8.595 0 0 0-.062 1.812c.062.646.198 1.26.406 1.844.208.562.5 1.052.875 1.468.396.396.896.625 1.5.688Zm10.656-1.563c.146-.687.25-1.291.313-1.812.083-.542.146-.99.187-1.344.042-.416.063-.77.063-1.062a82.59 82.59 0 0 1-.063-1.25c0-.5-.021-.99-.062-1.469a19.23 19.23 0 0 0-.094-1.313c-.042-.395-.094-.677-.156-.843a3.274 3.274 0 0 0-.344-.532c-.292-.354-.719-.697-1.281-1.03.479-.105.885-.188 1.218-.25.355-.084.646-.157.876-.22l.656-.218c.166-.063.364-.125.594-.188a207.766 207.766 0 0 0 1.624-.375l-.093 2.844c.666-.792 1.343-1.385 2.031-1.781.688-.396 1.333-.677 1.938-.844a6.975 6.975 0 0 1 2.031-.313 8.935 8.935 0 0 1 2.312.407c.729.229 1.354.5 1.875.812.542.292.979.604 1.313.938.333.333.531.625.593.875.25.812.313 1.562.188 2.25a16.089 16.089 0 0 1-.5 1.968c-.188.625-.354 1.25-.5 1.875-.125.625-.073 1.303.156 2.032l.25.562c.084.167.188.334.313.5.125.167.271.302.437.407a7.591 7.591 0 0 0-.687-.032 31.44 31.44 0 0 1-.625-.062c-.229-.021-.438-.042-.625-.063a8.951 8.951 0 0 0-.844-.031c-.604 0-1.542.031-2.813.094.188-.438.334-.802.438-1.094.125-.313.229-.563.312-.75.084-.23.146-.406.188-.531.25-.604.396-1.292.438-2.063a8.14 8.14 0 0 0-.157-2.343 7.14 7.14 0 0 0-.312-.97 5.114 5.114 0 0 0-.594-1.093 3.485 3.485 0 0 0-.844-.906 2.035 2.035 0 0 0-1.093-.438c-.417-.041-.886.063-1.407.313-.5.25-1.041.708-1.625 1.375-.437.562-.781 1.25-1.031 2.062-.229.688-.385 1.552-.469 2.594-.083 1.02.042 2.219.375 3.594a5.751 5.751 0 0 0-.812-.063c-.25-.02-.459-.041-.625-.062-.209-.021-.396-.042-.563-.063-.187 0-.396-.01-.625-.031h-.781c-.313-.02-.677-.042-1.094-.063Zm31.563-14.406c-.188.459-.354.875-.5 1.25-.125.375-.24.709-.344 1-.104.334-.198.625-.281.875-.084.292-.177.625-.281 1-.105.334-.24.75-.407 1.25-.146.48-.323 1.052-.531 1.719-.167-1-.469-1.792-.906-2.375-.438-.604-.886-1.073-1.344-1.406a5.585 5.585 0 0 0-1.75-.813c-1.125-.187-1.938-.166-2.438.063-.5.229-.833.52-1 .875a7.075 7.075 0 0 0-.281.562 6.247 6.247 0 0 0-.219.657 2.56 2.56 0 0 0-.031.687.82.82 0 0 0 .281.563c.105.104.376.25.813.437l1.563.594c.624.208 1.281.437 1.968.687.709.25 1.375.5 2 .75s1.167.5 1.625.75c.459.25.761.48.907.688.124.208.26.49.406.843.166.334.281.709.344 1.125.083.396.104.813.062 1.25a3.122 3.122 0 0 1-.344 1.25c-.208.417-.541.803-1 1.157-.437.354-1.031.646-1.781.875-.875.27-1.719.343-2.531.218a11.827 11.827 0 0 1-2.25-.562c-.667-.25-1.25-.49-1.75-.719-.5-.25-.854-.354-1.063-.312-.229.041-.489.156-.781.343-.292.188-.573.386-.844.594a10.4 10.4 0 0 0-.656.532c-.188.145-.281.197-.281.156 0-.042.031-.167.093-.375.084-.209.167-.459.25-.75.105-.313.198-.646.282-1 .104-.375.177-.73.218-1.063l.157-1c.041-.354.093-.781.156-1.281.083-.52.177-1.146.281-1.875.104.542.25 1.01.438 1.406.208.396.406.74.594 1.032.229.333.447.614.656.843.312.292.677.563 1.094.813.437.25.874.468 1.312.656.438.167.854.27 1.25.313.396.041.729 0 1-.125s.5-.355.688-.688c.208-.333.354-.698.437-1.094.083-.396.115-.77.094-1.125-.021-.375-.115-.677-.281-.906-.126-.146-.417-.333-.876-.563a24.2 24.2 0 0 0-1.593-.75c-.604-.27-1.25-.552-1.938-.843a56.862 56.862 0 0 1-1.906-.875 16.208 16.208 0 0 1-1.469-.875c-.375-.292-.583-.552-.625-.782a15.296 15.296 0 0 1-.093-1.093c-.021-.417 0-.823.062-1.219a4.05 4.05 0 0 1 .438-1.188c.229-.375.562-.687 1-.937.291-.167.677-.292 1.156-.375a9.336 9.336 0 0 1 1.594-.125c.583-.02 1.187 0 1.812.063.625.041 1.219.104 1.781.187.584.063 1.104.146 1.563.25.479.104.844.198 1.094.281.291.104.604.115.937.031.292-.062.604-.197.937-.406.334-.208.678-.583 1.032-1.125Z" fill="#000001"/><g clip-path="url('#clip1_204_58')"><path d="m24.158 16.336-6.421-4.833v18.994l6.42-4.833L30.369 21l-6.21-4.664Zm0 0-6.421-4.833v18.994l6.42-4.833L30.369 21l-6.21-4.664Zm0 0-6.421-4.833v18.994l6.42-4.833L30.369 21l-6.21-4.664ZM19.842 4.263V0a20.917 20.917 0 0 0-11.2 4.664l2.99 3.018c2.336-1.815 5.136-3.039 8.21-3.419ZM8.663 10.658l-3.01-2.997A21.025 21.025 0 0 0 1 18.89h4.253c.379-3.081 1.6-5.888 3.41-8.23Zm-3.41 12.453H1a21.025 21.025 0 0 0 4.653 11.228l3.01-3.018a16.628 16.628 0 0 1-3.41-8.21Zm3.39 14.225A20.986 20.986 0 0 0 19.842 42v-4.263c-3.075-.38-5.875-1.604-8.211-3.42l-2.99 3.019ZM43 21c0 10.89-8.253 19.881-18.842 21v-4.263C32.41 36.639 38.789 29.547 38.789 21c0-8.548-6.379-15.64-14.631-16.737V0C34.748 1.119 43 10.11 43 21Z" fill="#84853F"/></g></g><defs><clipPath id="clip0_204_58"><path fill="#fff" d="M0 0h233v42H0z"/></clipPath><clipPath id="clip1_204_58"><path fill="#fff" transform="translate(-2 -3)" d="M0 0h48v48H0z"/></clipPath></defs></svg>