<svg xmlns="http://www.w3.org/2000/svg" viewBox="0 0 44.5 34.1"><defs><style>.cls-1,.cls-2{fill:#c2bcbc;}.cls-1{fill-rule:evenodd;}</style></defs><g id="Шар_2" data-name="Шар 2"><g id="Шар_1-2" data-name="Шар 1"><path class="cls-1" d="M32,1a1,1,0,0,0-1-1H4A4,4,0,0,0,0,4V19a4,4,0,0,0,4,4H31a1,1,0,0,0,1-1V20a1,1,0,0,0-1-1H5a1,1,0,0,1-1-1V5A1,1,0,0,1,5,4H31a1,1,0,0,0,1-1Z"/><path class="cls-2" d="M35.5,12.87a1,1,0,0,1,0-1.74L43,6.8a1,1,0,0,1,1.5.87v8.66a1,1,0,0,1-1.5.87Z"/><path class="cls-2" d="M4.61,32.2a1.23,1.23,0,0,0-.07-.44.87.87,0,0,0-.27-.35,2.17,2.17,0,0,0-.52-.3,6.09,6.09,0,0,0-.83-.28A8.64,8.64,0,0,1,2,30.48,3.53,3.53,0,0,1,1.25,30a1.72,1.72,0,0,1-.47-.58,1.57,1.57,0,0,1-.16-.73,1.72,1.72,0,0,1,.66-1.38,2.26,2.26,0,0,1,.77-.41,3,3,0,0,1,1-.15,2.81,2.81,0,0,1,1.35.31,2.15,2.15,0,0,1,.86.8,2,2,0,0,1,.29,1H4.6a1.38,1.38,0,0,0-.17-.71,1.13,1.13,0,0,0-.51-.48A1.82,1.82,0,0,0,3,27.56a1.83,1.83,0,0,0-.83.16,1.05,1.05,0,0,0-.49.41,1.07,1.07,0,0,0-.16.59.83.83,0,0,0,.1.41,1,1,0,0,0,.29.33,2.29,2.29,0,0,0,.52.29,7.34,7.34,0,0,0,.76.26,6.19,6.19,0,0,1,1,.38,2.7,2.7,0,0,1,.73.47,1.6,1.6,0,0,1,.42.59,2,2,0,0,1,.14.74,1.83,1.83,0,0,1-.17.79,1.82,1.82,0,0,1-.51.6A2.59,2.59,0,0,1,4.1,34a4,4,0,0,1-1,.13,3.55,3.55,0,0,1-1-.14,2.85,2.85,0,0,1-.86-.41,2.23,2.23,0,0,1-.63-.67,1.92,1.92,0,0,1-.22-.94h.93a1.39,1.39,0,0,0,.14.63,1.34,1.34,0,0,0,.39.43,1.78,1.78,0,0,0,.56.25,2.39,2.39,0,0,0,.66.08,2.11,2.11,0,0,0,.84-.14,1.08,1.08,0,0,0,.51-.39A1,1,0,0,0,4.61,32.2Zm6.67,1V34H7.51v-.77ZM7.71,26.89V34h-1V26.89ZM10.78,30v.76H7.51V30Zm.45-3.06v.77H7.51v-.77Zm3.85.63L12.72,34h-1l2.71-7.11h.62Zm2,6.48-2.36-6.48v-.63h.62L18,34Zm-.12-2.63v.77h-4v-.77Zm5.83.83a1.23,1.23,0,0,0-.08-.44.94.94,0,0,0-.26-.35,2.65,2.65,0,0,0-.52-.3,7.22,7.22,0,0,0-.83-.28,7.94,7.94,0,0,1-.95-.35,3.36,3.36,0,0,1-.73-.44,1.69,1.69,0,0,1-.46-.58,1.57,1.57,0,0,1-.17-.73,1.65,1.65,0,0,1,.18-.77,1.76,1.76,0,0,1,.48-.61,2.36,2.36,0,0,1,.77-.41,3.12,3.12,0,0,1,1-.15,2.82,2.82,0,0,1,1.36.31,2.12,2.12,0,0,1,.85.8,1.93,1.93,0,0,1,.3,1h-.94a1.49,1.49,0,0,0-.17-.71,1.21,1.21,0,0,0-.52-.48,1.77,1.77,0,0,0-.88-.19,1.86,1.86,0,0,0-.83.16,1.05,1.05,0,0,0-.49.41,1.15,1.15,0,0,0-.15.59,1,1,0,0,0,.09.41.92.92,0,0,0,.3.33,2.09,2.09,0,0,0,.52.29c.21.09.46.17.75.26a6.32,6.32,0,0,1,1.05.38,2.8,2.8,0,0,1,.72.47,1.6,1.6,0,0,1,.42.59,1.78,1.78,0,0,1,.15.74,1.7,1.7,0,0,1-.18.79,1.79,1.79,0,0,1-.5.6,2.54,2.54,0,0,1-.79.39,3.92,3.92,0,0,1-1,.13,3.63,3.63,0,0,1-1-.14,3,3,0,0,1-.86-.41,2.2,2.2,0,0,1-.62-.67,1.92,1.92,0,0,1-.23-.94h.94a1.27,1.27,0,0,0,.14.63A1.21,1.21,0,0,0,20,33a1.83,1.83,0,0,0,.57.25,2.39,2.39,0,0,0,.66.08,2.09,2.09,0,0,0,.83-.14,1.11,1.11,0,0,0,.52-.39A1,1,0,0,0,22.76,32.2Zm7.62-2v.45a5,5,0,0,1-.2,1.44,2.83,2.83,0,0,1-.58,1.07,2.39,2.39,0,0,1-.9.68,2.95,2.95,0,0,1-2.33,0,2.5,2.5,0,0,1-.91-.68,3.15,3.15,0,0,1-.59-1.07,4.64,4.64,0,0,1-.21-1.44v-.45a4.53,4.53,0,0,1,.21-1.43,3.3,3.3,0,0,1,.59-1.08,2.39,2.39,0,0,1,.9-.68,2.95,2.95,0,0,1,2.33,0,2.39,2.39,0,0,1,.9.68,3.13,3.13,0,0,1,.59,1.08A4.84,4.84,0,0,1,30.38,30.22Zm-.93.45v-.46a4.66,4.66,0,0,0-.13-1.12,2.31,2.31,0,0,0-.38-.82,1.76,1.76,0,0,0-.61-.51,2,2,0,0,0-1.61,0,1.82,1.82,0,0,0-.6.51,2.32,2.32,0,0,0-.39.82,4.2,4.2,0,0,0-.13,1.12v.46a4.28,4.28,0,0,0,.13,1.13,2.46,2.46,0,0,0,.39.83,1.8,1.8,0,0,0,.61.5,1.91,1.91,0,0,0,.8.17,1.86,1.86,0,0,0,.81-.17,1.63,1.63,0,0,0,.61-.5,2.43,2.43,0,0,0,.37-.83A4.28,4.28,0,0,0,29.45,30.67Zm7.81-3.78V34h-.95l-3.58-5.48V34h-.94V26.89h.94l3.6,5.5v-5.5Zm5.46,5.31a1.23,1.23,0,0,0-.08-.44.94.94,0,0,0-.26-.35,2.65,2.65,0,0,0-.52-.3,6.61,6.61,0,0,0-.83-.28,7.94,7.94,0,0,1-1-.35,3.36,3.36,0,0,1-.73-.44,1.69,1.69,0,0,1-.46-.58,1.57,1.57,0,0,1-.16-.73A1.64,1.64,0,0,1,38.9,28a1.76,1.76,0,0,1,.48-.61,2.47,2.47,0,0,1,.77-.41,3.12,3.12,0,0,1,1-.15,2.82,2.82,0,0,1,1.36.31,2.12,2.12,0,0,1,.85.8,1.93,1.93,0,0,1,.3,1h-.94a1.49,1.49,0,0,0-.17-.71,1.16,1.16,0,0,0-.52-.48,1.77,1.77,0,0,0-.88-.19,1.86,1.86,0,0,0-.83.16,1.05,1.05,0,0,0-.49.41,1.15,1.15,0,0,0-.15.59,1,1,0,0,0,.09.41,1.15,1.15,0,0,0,.3.33,2.29,2.29,0,0,0,.52.29c.21.09.46.17.75.26a6.32,6.32,0,0,1,1.05.38,2.8,2.8,0,0,1,.72.47,1.76,1.76,0,0,1,.43.59,2,2,0,0,1,.14.74,1.7,1.7,0,0,1-.18.79,1.79,1.79,0,0,1-.5.6,2.54,2.54,0,0,1-.79.39,3.92,3.92,0,0,1-1,.13,3.63,3.63,0,0,1-1-.14,3,3,0,0,1-.86-.41,2.2,2.2,0,0,1-.62-.67,1.92,1.92,0,0,1-.23-.94h.94a1.39,1.39,0,0,0,.14.63A1.15,1.15,0,0,0,40,33a1.68,1.68,0,0,0,.56.25,2.39,2.39,0,0,0,.66.08,2.06,2.06,0,0,0,.83-.14,1.11,1.11,0,0,0,.52-.39A1,1,0,0,0,42.72,32.2Z"/></g></g></svg>