<?xml version="1.0" encoding="iso-8859-1"?>
<!-- Generator: Adobe Illustrator 19.0.0, SVG Export Plug-In . SVG Version: 6.00 Build 0)  -->
<svg version="1.1" id="Layer_1" xmlns="http://www.w3.org/2000/svg" xmlns:xlink="http://www.w3.org/1999/xlink" x="0px" y="0px"
	 viewBox="0 0 512 512" style="enable-background:new 0 0 512 512;" xml:space="preserve">
<g>
	<g>
		<path style="fill:#ffffff;" d="M512,231.509c0-21.515-17.441-38.956-38.957-38.956H339.478v-1.113c26.381-40.5,39.45-91.473,39.45-144.683
			c0-21.52-17.445-38.963-38.964-38.963c-21.52,0-38.964,17.444-38.964,38.963c0,74.859-53.968,136.529-126.259,144.833v312.616
			h250.435c21.515,0,38.957-17.44,38.957-38.956c0-21.515-17.441-38.957-38.957-38.957h15.957c21.515,0,38.957-17.44,38.957-38.956
			c0-21.515-17.441-38.957-38.957-38.957h15.957c21.515,0,38.956-17.44,38.956-38.957c0-21.515-17.441-38.956-38.956-38.956h15.955
			C494.559,270.466,512,253.024,512,231.509z"/>
	</g>
</g>
<g>
	<g>
		<rect style="fill:#ffffff;" x="107.954" y="192.555" width="33.391" height="311.652"/>
	</g>
</g>
<g>
	<g>
		<rect style="fill:#ffffff;" y="192.555" width="74.566" height="311.652"/>
	</g>
</g>
<g>
</g>
<g>
</g>
<g>
</g>
<g>
</g>
<g>
</g>
<g>
</g>
<g>
</g>
<g>
</g>
<g>
</g>
<g>
</g>
<g>
</g>
<g>
</g>
<g>
</g>
<g>
</g>
<g>
</g>
</svg>
