<?xml version="1.0" encoding="UTF-8"?>
<!DOCTYPE svg PUBLIC "-//W3C//DTD SVG 1.1//EN" "http://www.w3.org/Graphics/SVG/1.1/DTD/svg11.dtd">
<!-- Creator: CorelDRAW 2020 (64-Bit) -->
<svg xmlns="http://www.w3.org/2000/svg" xml:space="preserve" width="180px" height="97px" version="1.1" style="shape-rendering:geometricPrecision; text-rendering:geometricPrecision; image-rendering:optimizeQuality; fill-rule:evenodd; clip-rule:evenodd"
viewBox="0 0 180 97"
 xmlns:xlink="http://www.w3.org/1999/xlink"
 xmlns:xodm="http://www.corel.com/coreldraw/odm/2003">
 <defs>
  <style type="text/css">
   <![CDATA[
    .fil4 {fill:#FEFEFE}
    .fil0 {fill:#D9DADA}
    .fil9 {fill:#1C2028}
    .fil5 {fill:#1C2028}
    .fil8 {fill:#E47B61}
    .fil1 {fill:#ECBF6A}
    .fil2 {fill:#FED477}
    .fil3 {fill:#1C2028;fill-rule:nonzero}
    .fil10 {fill:#FA3A07;fill-rule:nonzero}
    .fil6 {fill:#FA3A07;fill-rule:nonzero}
    .fil7 {fill:url(#id0)}
   ]]>
  </style>
  <linearGradient id="id0" gradientUnits="userSpaceOnUse" x1="58.36" y1="55.55" x2="58.36" y2="27.26">
   <stop offset="0" style="stop-opacity:1; stop-color:#FED477"/>
   <stop offset="1" style="stop-opacity:1; stop-color:#E47B61"/>
  </linearGradient>
 </defs>
 <g id="Слой_x0020_1">
  <metadata id="CorelCorpID_0Corel-Layer"/>
  <ellipse class="fil0" cx="53.44" cy="87.07" rx="34.87" ry="5.41"/>
  <ellipse class="fil0" cx="133.57" cy="87.07" rx="34.87" ry="5.41"/>
  <g id="_1840747970576">
   <circle class="fil1" cx="132.16" cy="54.15" r="34.13"/>
   <path class="fil2" d="M132.16 20.02c18.85,0 34.13,15.28 34.13,34.13 0,13.42 -7.75,25.03 -19.01,30.61 -3.79,1.45 -7.9,2.24 -12.2,2.24 -18.85,0 -34.13,-15.28 -34.13,-34.13 0,-13.42 7.75,-25.03 19.02,-30.61 3.79,-1.45 7.9,-2.24 12.19,-2.24z"/>
   <path class="fil3" d="M134.29 59.18c-0.15,-0.57 0.21,-1.15 0.78,-1.3 0.58,-0.14 1.16,0.21 1.3,0.79 0.07,0.26 0.12,0.52 0.15,0.77 0.03,0.26 0.04,0.52 0.04,0.77 0,1.79 -0.72,3.4 -1.89,4.57 -1.17,1.17 -2.78,1.9 -4.57,1.9 -1.36,0 -2.66,-0.44 -3.73,-1.19 -1.07,-0.76 -1.91,-1.84 -2.36,-3.13 -0.2,-0.56 0.1,-1.17 0.66,-1.37 0.56,-0.2 1.17,0.1 1.37,0.66 0.3,0.86 0.86,1.58 1.57,2.08 0.71,0.5 1.57,0.79 2.49,0.79 1.19,0 2.27,-0.48 3.05,-1.26 0.78,-0.78 1.26,-1.86 1.26,-3.05 0,-0.18 -0.01,-0.35 -0.03,-0.52 -0.02,-0.18 -0.05,-0.35 -0.09,-0.51z"/>
   <path class="fil4" d="M121.77 37.72c4.42,0 8,4.55 8,10.16 0,3.09 -1.08,5.86 -2.8,7.72 -2.51,-2.64 -6.38,-4.33 -10.73,-4.33 -0.67,0 -1.33,0.05 -1.97,0.12 -0.32,-1.09 -0.5,-2.28 -0.5,-3.51 0,-5.61 3.59,-10.16 8,-10.16z"/>
   <path class="fil4" d="M144.58 39.09c-4.63,-1.71 -10.15,1.67 -12.32,7.55 -1.19,3.24 -1.12,6.56 -0.04,9.18 3.64,-1.79 8.36,-2.06 12.92,-0.38 0.7,0.26 1.37,0.56 2.02,0.89 0.76,-1.03 1.4,-2.2 1.88,-3.5 2.17,-5.88 0.17,-12.03 -4.46,-13.74z"/>
   <circle class="fil5" cx="123.17" cy="46.99" r="3.19"/>
   <circle class="fil4" cx="124.86" cy="46.51" r="0.92"/>
   <circle class="fil5" cx="138.19" cy="48.42" r="3.19"/>
   <circle class="fil4" cx="136.5" cy="47.94" r="0.92"/>
   <path class="fil6" d="M155.91 8.51c1.72,-1.43 3.05,-1.95 4.88,-1.14 2.03,0.9 2.95,3.27 2.06,5.3 -1.62,3.67 -6.91,5.73 -12.2,7.78 -2.06,-5.29 -4.12,-10.58 -2.5,-14.26 0.9,-2.03 3.27,-2.95 5.29,-2.05 1.84,0.81 2.36,2.13 2.47,4.37z"/>
   <path class="fil6" d="M140.58 10.73c0.68,-0.96 1.29,-1.39 2.32,-1.22 1.14,0.18 1.92,1.26 1.74,2.4 -0.34,2.07 -2.74,3.81 -5.14,5.55 -1.74,-2.41 -3.48,-4.81 -3.14,-6.88 0.18,-1.15 1.26,-1.92 2.4,-1.74 1.04,0.17 1.47,0.77 1.82,1.89z"/>
   <path class="fil6" d="M158.96 22.89c0.51,-0.07 0.83,-0.01 1.09,0.37 0.28,0.41 0.18,0.98 -0.24,1.27 -0.75,0.52 -2.03,0.28 -3.3,0.05 0.24,-1.27 0.47,-2.55 1.22,-3.06 0.42,-0.29 0.99,-0.19 1.28,0.23 0.26,0.38 0.2,0.69 -0.05,1.14z"/>
  </g>
  <g id="_1840747969904">
   <circle class="fil1" cx="54.32" cy="53.49" r="33.58"/>
   <path class="fil7" d="M54.32 19.91c18.55,0 33.59,15.03 33.59,33.58 0,4.5 -0.89,8.8 -2.5,12.72 -5.66,10.57 -16.8,17.76 -29.63,17.76 -18.55,0 -33.58,-15.03 -33.58,-33.58 0,-4.5 0.89,-8.8 2.49,-12.72 5.66,-10.57 16.8,-17.76 29.63,-17.76z"/>
   <path class="fil8" d="M49.76 67c6.45,0 12.26,3.22 16.29,8.37 -8.58,-2.03 -18.44,-3.32 -29,-3.69 3.6,-2.95 7.98,-4.68 12.71,-4.68z"/>
   <path class="fil4" d="M49.76 67c4.36,0 8.42,1.47 11.84,4.01 -7.05,-0.34 -13.76,-1.1 -19.95,-2.22 2.51,-1.15 5.24,-1.79 8.11,-1.79z"/>
   <path class="fil4" d="M52.78 54.44c-0.31,3.78 -2.9,6.92 -6.4,8.01 -1.37,-0.81 -2.96,-1.27 -4.66,-1.27 -0.96,0 -1.88,0.15 -2.75,0.42 -2.7,-1.6 -4.51,-4.54 -4.51,-7.9 0,-3.41 1.86,-6.39 4.62,-7.97 3.48,4.13 7.62,6.18 13.7,8.71z"/>
   <path class="fil9" d="M51.01 53.27c0.01,0.12 0.02,0.25 0.02,0.38 0,2.22 -1.8,4.02 -4.02,4.02 -2.22,0 -4.02,-1.8 -4.02,-4.02 0,-1.34 0.66,-2.52 1.67,-3.25 0.81,1.41 3.26,2.52 6.35,2.87z"/>
   <path class="fil4" d="M48.51 53.24c0,0.05 0.01,0.1 0.01,0.15 0,0.83 -0.68,1.5 -1.51,1.5 -0.83,0 -1.51,-0.67 -1.51,-1.5 0,-0.5 0.25,-0.95 0.63,-1.22 0.3,0.53 1.22,0.94 2.38,1.07z"/>
   <path class="fil4" d="M70.03 42.34c3.07,1.6 5.18,4.94 5.18,8.8 0,5.42 -4.16,9.81 -9.29,9.81 -3.83,0 -7.12,-2.45 -8.53,-5.95 6.07,-3.95 9.93,-6.94 12.64,-12.66z"/>
   <path class="fil9" d="M64.98 48.82c1.26,0.52 2.15,1.76 2.15,3.21 0,1.92 -1.55,3.47 -3.46,3.47 -1.74,0 -3.17,-1.27 -3.43,-2.93 1.79,-1.24 3.36,-2.45 4.74,-3.75z"/>
   <circle class="fil4" cx="63.36" cy="51.92" r="1.21"/>
   <path class="fil10" d="M12.65 21.38c-0.73,-0.61 -0.82,-1.7 -0.21,-2.43 0.61,-0.73 1.69,-0.82 2.42,-0.21l5.92 4.96 6.3 -6.69c0.65,-0.7 1.74,-0.73 2.44,-0.08 0.69,0.65 0.72,1.74 0.07,2.43l-7.37 7.83c-0.62,0.7 -1.68,0.79 -2.4,0.19l-7.17 -6z"/>
   <path class="fil10" d="M7.76 25.53c-0.71,-0.64 -0.76,-1.73 -0.12,-2.43 0.64,-0.7 1.73,-0.75 2.44,-0.11l6.91 6.28c0.7,0.63 0.75,1.7 0.14,2.41l-6.75 8.35c-0.6,0.74 -1.68,0.86 -2.42,0.27 -0.74,-0.6 -0.86,-1.68 -0.26,-2.42l5.77 -7.15 -5.71 -5.2z"/>
   <path class="fil10" d="M29.67 39.34c0.73,0.61 0.83,1.7 0.22,2.42 -0.61,0.73 -1.7,0.83 -2.43,0.22l-5.92 -4.96 -6.3 6.69c-0.65,0.69 -1.74,0.72 -2.43,0.07 -0.69,-0.65 -0.73,-1.74 -0.08,-2.43l7.38 -7.82c0.61,-0.71 1.68,-0.79 2.4,-0.19l7.16 6z"/>
   <path class="fil10" d="M34.57 35.18c0.7,0.64 0.75,1.73 0.11,2.44 -0.64,0.7 -1.73,0.75 -2.43,0.11l-6.92 -6.28c-0.69,-0.64 -0.75,-1.71 -0.14,-2.41l6.75 -8.36c0.6,-0.74 1.68,-0.86 2.42,-0.26 0.74,0.59 0.86,1.68 0.27,2.42l-5.78 7.15 5.72 5.19z"/>
   <path class="fil9" d="M53.66 53.92c0.39,0.11 0.68,0.48 0.68,0.91 0,0.52 -0.43,0.95 -0.95,0.95 -0.09,0 -0.18,-0.02 -0.27,-0.04l0 0 0 0c-0.06,-0.02 -0.12,-0.04 -0.18,-0.07 -7.66,-3.16 -12.32,-5.46 -16.34,-11.65 -0.02,-0.03 -0.04,-0.06 -0.06,-0.09l-0.01 -0.01 0 0c-0.14,-0.24 -0.23,-0.53 -0.23,-0.84 0,-0.91 0.74,-1.64 1.64,-1.64 0.54,0 1.01,0.25 1.31,0.64l0 0 0 0c0.16,0.21 0.27,0.46 0.31,0.73 2.51,5.26 9.96,9.82 14.1,11.11l0 0z"/>
   <path class="fil9" d="M56.65 53.77c-0.36,0.19 -0.58,0.6 -0.5,1.02 0.09,0.51 0.59,0.86 1.1,0.76 0.1,-0.02 0.18,-0.05 0.26,-0.09l0 0 0 0c0.06,-0.03 0.12,-0.06 0.17,-0.1 6.96,-4.49 11.12,-7.6 13.95,-14.42 0.02,-0.03 0.03,-0.07 0.05,-0.1l0 0 0 0c0.1,-0.27 0.13,-0.57 0.08,-0.88 -0.17,-0.89 -1.02,-1.48 -1.92,-1.32 -0.52,0.1 -0.94,0.44 -1.17,0.88l0 0 0 0c-0.11,0.23 -0.18,0.5 -0.17,0.77 -1.51,5.63 -8.01,11.47 -11.85,13.48l0 0z"/>
  </g>
 </g>
</svg>
