<svg width="36" height="36" viewBox="0 0 36 36" fill="none" xmlns="http://www.w3.org/2000/svg">
<path d="M18 0C8.064 0 0 8.064 0 18C0 27.936 8.064 36 18 36C27.936 36 36 27.936 36 18C36 8.064 27.936 0 18 0ZM24.498 11.412C26.424 11.412 27.972 12.96 27.972 14.886C27.972 16.812 26.424 18.36 24.498 18.36C22.572 18.36 21.024 16.812 21.024 14.886C21.006 12.96 22.572 11.412 24.498 11.412ZM13.698 8.568C16.038 8.568 17.946 10.476 17.946 12.816C17.946 15.156 16.038 17.064 13.698 17.064C11.358 17.064 9.45 15.156 9.45 12.816C9.45 10.458 11.34 8.568 13.698 8.568ZM13.698 25.002V31.752C9.378 30.402 5.958 27.072 4.446 22.824C6.336 20.808 11.052 19.782 13.698 19.782C14.652 19.782 15.858 19.926 17.118 20.178C14.166 21.744 13.698 23.814 13.698 25.002ZM18 32.4C17.514 32.4 17.046 32.382 16.578 32.328V25.002C16.578 22.446 21.87 21.168 24.498 21.168C26.424 21.168 29.754 21.87 31.41 23.238C29.304 28.584 24.102 32.4 18 32.4Z" fill="white"/>
</svg>
