<svg xmlns="http://www.w3.org/2000/svg" xmlns:xlink="http://www.w3.org/1999/xlink" width="1306.121" height="326.094" viewBox="0 0 1306.121 326.094">
  <defs>
    <linearGradient id="we-gradient" x1="0%" y1="0%" x2="100%" y2="0%" gradientTransform="rotate(45)">
      <stop offset="5%" stop-color="#5086ff" />
      <stop offset="100%" stop-color="#ae5fd2" />
    </linearGradient>
  </defs>
  <path fill="url(#we-gradient)" d="M319.543,204.352q12.177,6.672,16.816,21.164l49.867,145.542L405.677,311.6A40.6,40.6,0,0,1,422.2,289.853a45.981,45.981,0,0,1,25.8-7.828q12.177,0,20.584,4.639a44.183,44.183,0,0,1,13.627,11.307c3.479,4.448,4.088,9.277,5.828,14.5a46.837,46.837,0,0,1,2.609,14.786,50.177,50.177,0,0,1-2.9,15.656L429.134,493.985q-4.647,13.346-14.786,20.875T389.705,522.4q-30.741,0-42.329-27.833L292.291,358.881,239.525,494.565Q228.5,522.4,194.876,522.4q-13.916,0-23.773-7.538t-14.5-20.875L69.629,258.567a49.917,49.917,0,0,1-2.9-15.655,46.819,46.819,0,0,1,2.609-14.786,48.061,48.061,0,0,1,7.828-14.5,44.114,44.114,0,0,1,13.626-11.307q8.4-4.633,20.584-4.638a46.015,46.015,0,0,1,25.8,7.827,40.685,40.685,0,0,1,16.525,21.745l45.808,144.382,50.447-146.122q4.633-13.915,15.946-20.874t26.383-6.958A55.858,55.858,0,0,1,319.543,204.352ZM517.224,419.271q0,3.418,4.557,6.55a52.762,52.762,0,0,0,11.39,5.695,104.24,104.24,0,0,0,14.808,4.272,68.691,68.691,0,0,0,14.238,1.708q18.221,0,28.476-4.841a87.377,87.377,0,0,0,17.371-10.536q7.115-5.687,13.668-10.536,6.542-4.832,17.941-4.841a38.359,38.359,0,0,1,16.8,3.987A53.139,53.139,0,0,1,671,420.98a48.586,48.586,0,0,1,9.967,14.523,42.068,42.068,0,0,1,3.7,17.37q0,16.526-13.1,29.616-18.234,17.085-46.7,28.761-28.485,11.679-62.648,11.675A167.15,167.15,0,0,1,499,510.965a156.644,156.644,0,0,1-86.853-85.144q-12.815-29.9-12.814-65.78t12.814-65.78A156.65,156.65,0,0,1,499,209.116a167.169,167.169,0,0,1,63.217-11.96,163.645,163.645,0,0,1,50.4,7.974,141.781,141.781,0,0,1,43.853,22.781,118.915,118.915,0,0,1,30.755,35.31q11.667,20.5,11.675,46.132,0,14.243-5.98,24.774t-19.079,15.662L525.2,411.868q-7.983,3.417-7.974,7.4h0Zm-25.343-73.753a8.068,8.068,0,0,0,4.84,1.424,18.6,18.6,0,0,0,5.7-1.139l92.263-38.728q7.97-3.417,7.973-7.973,0-6.261-11.96-11.391t-28.476-5.126a69.119,69.119,0,0,0-29.046,5.98,91.583,91.583,0,0,0-22.781,14.523A66.361,66.361,0,0,0,495.3,321.883q-5.419,10.251-5.411,18.794C489.887,342.955,490.546,344.575,491.881,345.518Zm230.237,98.311a59.461,59.461,0,0,1,11.887-17.976,52.8,52.8,0,0,1,17.975-12.176,57.994,57.994,0,0,1,44.069,0,56.04,56.04,0,0,1,18.265,12.176,56.989,56.989,0,0,1,12.177,17.976,54.633,54.633,0,0,1,4.349,21.744q0,23.783-16.526,40.3t-40.3,16.526q-23.784,0-40.01-16.526t-16.236-40.3A54.633,54.633,0,0,1,722.118,443.829ZM939.745,511.8a138.325,138.325,0,0,1-73.606-73.606,134.811,134.811,0,0,1-10.925-54.054V241.526a44.174,44.174,0,0,1,44.278-44.278,45.458,45.458,0,0,1,17.539,3.45,43.79,43.79,0,0,1,14.376,9.488,44.549,44.549,0,0,1,9.488,14.089,43.369,43.369,0,0,1,3.45,17.251V388.162q0,20.135,14.664,32.777T993.8,433.59a51.835,51.835,0,0,0,34.5-12.651q14.955-12.642,14.95-32.777V241.526a43.369,43.369,0,0,1,3.45-17.251,44.638,44.638,0,0,1,9.49-14.089,43.766,43.766,0,0,1,14.38-9.488,45.376,45.376,0,0,1,17.54-3.45,44.16,44.16,0,0,1,44.27,44.278v142.61a134.91,134.91,0,0,1-10.92,54.054,138.359,138.359,0,0,1-73.61,73.606A139.178,139.178,0,0,1,939.745,511.8ZM1179.43,290.225a74.821,74.821,0,0,0,29.29,143.84,71.923,71.923,0,0,0,29-5.8,75.388,75.388,0,0,0,23.49-15.95,75.3,75.3,0,0,0,0-106.14,75.662,75.662,0,0,0-23.49-15.95,72.058,72.058,0,0,0-29-5.8A74.093,74.093,0,0,0,1179.43,290.225Zm193.43,186.18a44,44,0,0,1-13.05,31.9,42.569,42.569,0,0,1-31.61,13.34,41.568,41.568,0,0,1-27.84-10.44q-12.18-10.44-15.08-22.62-1.74,1.168-8.12,6.38a113.829,113.829,0,0,1-17.69,11.31,138.936,138.936,0,0,1-27.55,10.73q-16.245,4.649-37.7,4.64-27.27,0-54.23-12.18a156.706,156.706,0,0,1-48.14-33.93,177.137,177.137,0,0,1-34.51-51.33q-13.35-29.58-13.34-64.96T1057.34,294q13.335-29.866,34.51-51.33a159.217,159.217,0,0,1,48.14-33.64q26.97-12.18,54.23-12.18,21.45,0,37.7,4.64a139.428,139.428,0,0,1,27.55,10.73,113.829,113.829,0,0,1,17.69,11.31q6.375,5.22,8.12,6.38,2.9-12.18,15.08-22.62a41.568,41.568,0,0,1,27.84-10.44,44.556,44.556,0,0,1,44.66,44.66v234.9Z" transform="translate(-66.719 -196.844)"/>
</svg>