<svg xmlns="http://www.w3.org/2000/svg" aria-hidden="true" overflow="hidden" style="width:0;height:0;position:absolute"><defs><symbol id="icon-screen" viewBox="0 0 40 32"><path d="M36.364 0H3.637C1.619 0 .001 1.582.001 3.556v21.333c0 1.956 1.618 3.556 3.636 3.556h9.091v3.556h14.545v-3.556h9.091c2 0 3.618-1.6 3.618-3.556L40 3.556C40 1.583 38.364 0 36.364 0zm0 24.889H3.637V3.556h32.727v21.333zm-9.091-10.667-12.727 7.111V7.111l12.727 7.111z"/></symbol><symbol id="icon-users" viewBox="0 0 32 32"><path d="M16 0C7.168 0 0 7.168 0 16s7.168 16 16 16 16-7.168 16-16S24.832 0 16 0zm5.776 10.144c1.712 0 3.088 1.376 3.088 3.088s-1.376 3.088-3.088 3.088a3.08 3.08 0 0 1-3.088-3.088c-.016-1.712 1.376-3.088 3.088-3.088zm-9.6-2.528c2.08 0 3.776 1.696 3.776 3.776s-1.696 3.776-3.776 3.776A3.783 3.783 0 0 1 8.4 11.392a3.763 3.763 0 0 1 3.776-3.776zm0 14.608v6c-3.84-1.2-6.88-4.16-8.224-7.936 1.68-1.792 5.872-2.704 8.224-2.704.848 0 1.92.128 3.04.352-2.624 1.392-3.04 3.232-3.04 4.288zM16 28.8c-.432 0-.848-.016-1.264-.064v-6.512c0-2.272 4.704-3.408 7.04-3.408 1.712 0 4.672.624 6.144 1.84C26.048 25.408 21.424 28.8 16 28.8z"/></symbol><symbol id="eyes" viewBox="0 0 17 16"><path d="M8.272 4C4.739 4 1.722 5.848.5 8.456c1.222 2.608 4.24 4.456 7.772 4.456 3.533 0 6.55-1.848 7.772-4.456C14.822 5.848 11.804 4 8.272 4Zm0 7.427c-1.95 0-3.533-1.331-3.533-2.971 0-1.64 1.583-2.97 3.533-2.97s3.533 1.33 3.533 2.97c0 1.64-1.583 2.97-3.533 2.97Zm0-4.753c-1.173 0-2.12.796-2.12 1.782s.947 1.782 2.12 1.782 2.12-.796 2.12-1.782-.947-1.782-2.12-1.782Z"/></symbol><symbol id="card" viewBox="0 0 20 20"><path d="M19.844 3.563v1.98h-3.108v2.972h-2.073V5.544h-3.109v-1.98h3.109V.592h2.073v2.97h3.108Zm-3.108 13.864H2.228V3.563h6.217v-1.98H2.228c-1.14 0-2.073.891-2.073 1.98v13.864c0 1.089.933 1.98 2.073 1.98h14.508c1.14 0 2.072-.891 2.072-1.98v-5.942h-2.072v5.942Zm-4.146-5.942v3.961h2.073v-3.96h-2.072Zm-4.145 3.961h2.073V7.524H8.445v7.922Zm-2.072 0V9.505H4.3v5.941h2.073Z"/></symbol><symbol id="users" viewBox="0 0 20 16"><path fill-rule="evenodd" clip-rule="evenodd" d="M14.102 8.992c1.204.817 2.047 1.924 2.047 3.4v2.635h3.514v-2.635c0-1.915-3.136-3.048-5.56-3.4Z"/><path d="M7.365 8a3.514 3.514 0 1 0 0-7.027 3.514 3.514 0 0 0 0 7.027Z"/><path fill-rule="evenodd" clip-rule="evenodd" d="M12.635 8a3.513 3.513 0 0 0 3.514-3.514A3.513 3.513 0 0 0 12.635.973c-.413 0-.8.088-1.168.21a5.252 5.252 0 0 1 0 6.606c.369.123.755.21 1.168.21ZM7.365 8.878c-2.345 0-7.027 1.177-7.027 3.514v2.635h14.054v-2.635c0-2.337-4.682-3.514-7.027-3.514Z"/></symbol><symbol id="burger" viewBox="0 0 24 24"><path d="M0 24h24v-2.667H0V24ZM0 6.667v10.666L5.333 12 0 6.667Zm10.667 12H24V16H10.667v2.667ZM0 0v2.667h24V0H0Zm10.667 8H24V5.333H10.667V8Zm0 5.333H24v-2.666H10.667v2.666Z"/></symbol><symbol id="loop" viewBox="0 0 24 24"><path d="m22.133 24-8.4-8.4a8.127 8.127 0 0 1-5.067 1.733c-2.422 0-4.471-.839-6.149-2.517C.84 13.138.001 11.088 0 8.666c0-2.422.84-4.471 2.517-6.149C4.196.84 6.245.001 8.667 0c2.422 0 4.472.84 6.149 2.517 1.677 1.679 2.516 3.728 2.517 6.15a8.127 8.127 0 0 1-1.733 5.066l8.4 8.4L22.133 24ZM8.667 14.667c1.666 0 3.083-.584 4.25-1.751 1.167-1.167 1.75-2.584 1.75-4.25s-.584-3.083-1.751-4.25c-1.167-1.167-2.584-1.75-4.25-1.75s-3.083.584-4.25 1.751c-1.167 1.167-1.75 2.584-1.75 4.25s.584 3.083 1.751 4.25c1.167 1.167 2.584 1.75 4.25 1.75Z"/></symbol><svg id="play" viewBox="0 0 72 72"><path d="M28.8 52.2 50.4 36 28.8 19.8v32.4ZM36 0C16.128 0 0 16.128 0 36s16.128 36 36 36 36-16.128 36-36S55.872 0 36 0Zm0 64.8C20.124 64.8 7.2 51.876 7.2 36 7.2 20.124 20.124 7.2 36 7.2c15.876 0 28.8 12.924 28.8 28.8 0 15.876-12.924 28.8-28.8 28.8Z" fill="#F7F3F3"/></svg></defs></svg>