<?xml version="1.0" encoding="iso-8859-1"?>
<!-- Generator: Adobe Illustrator 19.0.0, SVG Export Plug-In . SVG Version: 6.00 Build 0)  -->
<svg version="1.1" id="Layer_1" xmlns="http://www.w3.org/2000/svg" xmlns:xlink="http://www.w3.org/1999/xlink" x="0px" y="0px"
	 viewBox="0 0 512 512" style="enable-background:new 0 0 512 512;" xml:space="preserve">
<g>
	<g>
		<path 	style="fill:#ffffff" d="M497.02,306.152c0-10.83-3.313-20.9-8.979-29.253C502.442,267.586,512,251.399,512,233.01
			c0-28.808-23.437-52.245-52.245-52.245h-99.093c17.343-35.287,26.412-76.656,26.412-121.197c0-28.812-23.44-52.251-52.252-52.251
			c-28.811,0-52.251,23.44-52.251,52.251c0,67.96-52.064,121.195-118.53,121.195H0v323.92h414.817
			c28.808,0,52.245-23.437,52.245-52.245c0-10.83-3.314-20.9-8.979-29.253c14.401-9.313,23.958-25.501,23.958-43.89
			c0-10.83-3.314-20.901-8.979-29.253C487.463,340.728,497.02,324.541,497.02,306.152z M85.674,473.336H31.347V212.11h54.327
			V473.336z M148.368,473.336h-31.347V212.11h31.347V473.336z M459.755,253.908h-55.387v31.347h40.407
			c11.523,0,20.898,9.375,20.898,20.898c0,11.523-9.375,20.898-20.898,20.898h-40.407v31.347h25.429
			c11.523,0,20.898,9.375,20.898,20.898c0,11.523-9.375,20.898-20.898,20.898h-25.429v31.347h10.449
			c11.523,0,20.898,9.375,20.898,20.898c0,11.523-9.375,20.898-20.898,20.898H179.715v-262.03
			c34.656-3.553,66.527-18.869,91.008-44.027c27.855-28.626,43.196-66.878,43.196-107.711c0-11.526,9.378-20.904,20.904-20.904
			c11.527,0,20.905,9.378,20.905,20.904c0,48.618-11.927,92.628-34.493,127.271l-2.541,3.9v21.373h141.061
			c11.523,0,20.898,9.375,20.898,20.898C480.653,244.533,471.278,253.908,459.755,253.908z"/>
	</g>
</g>
<g>
</g>
<g>
</g>
<g>
</g>
<g>
</g>
<g>
</g>
<g>
</g>
<g>
</g>
<g>
</g>
<g>
</g>
<g>
</g>
<g>
</g>
<g>
</g>
<g>
</g>
<g>
</g>
<g>
</g>
</svg>
