<svg xmlns="http://www.w3.org/2000/svg" aria-hidden="true" overflow="hidden" style="position:absolute;width:0;height:0">
  <defs>
    <symbol id="icon-screen" viewBox="0 0 40 32">
      <path
        d="M36.364 0H3.637C1.619 0 .001 1.582.001 3.556v21.333c0 1.956 1.618 3.556 3.636 3.556h9.091v3.556h14.545v-3.556h9.091c2 0 3.618-1.6 3.618-3.556L40 3.556C40 1.583 38.364 0 36.364 0zm0 24.889H3.637V3.556h32.727v21.333zm-9.091-10.667-12.727 7.111V7.111l12.727 7.111z" />
    </symbol>
    <symbol id="icon-users" viewBox="0 0 32 32">
      <path
        d="M16 0C7.168 0 0 7.168 0 16s7.168 16 16 16 16-7.168 16-16S24.832 0 16 0zm5.776 10.144c1.712 0 3.088 1.376 3.088 3.088s-1.376 3.088-3.088 3.088a3.08 3.08 0 0 1-3.088-3.088c-.016-1.712 1.376-3.088 3.088-3.088zm-9.6-2.528c2.08 0 3.776 1.696 3.776 3.776s-1.696 3.776-3.776 3.776A3.783 3.783 0 0 1 8.4 11.392a3.763 3.763 0 0 1 3.776-3.776zm0 14.608v6c-3.84-1.2-6.88-4.16-8.224-7.936 1.68-1.792 5.872-2.704 8.224-2.704.848 0 1.92.128 3.04.352-2.624 1.392-3.04 3.232-3.04 4.288zM16 28.8c-.432 0-.848-.016-1.264-.064v-6.512c0-2.272 4.704-3.408 7.04-3.408 1.712 0 4.672.624 6.144 1.84C26.048 25.408 21.424 28.8 16 28.8z" />
    </symbol>
    <symbol id="eyes" viewBox="0 0 17 16">
      <path
        d="M8.27202 4C4.73928 4 1.72233 5.84777 0.5 8.45603C1.72233 11.0643 4.73928 12.9121 8.27202 12.9121C11.8048 12.9121 14.8217 11.0643 16.044 8.45603C14.8217 5.84777 11.8048 4 8.27202 4ZM8.27202 11.4267C6.32195 11.4267 4.73928 10.0958 4.73928 8.45603C4.73928 6.81621 6.32195 5.48534 8.27202 5.48534C10.2221 5.48534 11.8048 6.81621 11.8048 8.45603C11.8048 10.0958 10.2221 11.4267 8.27202 11.4267ZM8.27202 6.67362C7.09915 6.67362 6.15238 7.46976 6.15238 8.45603C6.15238 9.44229 7.09915 10.2384 8.27202 10.2384C9.44489 10.2384 10.3917 9.44229 10.3917 8.45603C10.3917 7.46976 9.44489 6.67362 8.27202 6.67362Z" />
    </symbol>
    <symbol id="card" viewBox="0 0 20 20">
      <path
        d="M19.8444 3.56346V5.54391H16.7356V8.5146H14.663V5.54391H11.5542V3.56346H14.663V0.592773H16.7356V3.56346H19.8444ZM16.7356 17.4266H2.22781V3.56346H8.44543V1.583H2.22781C1.08792 1.583 0.155273 2.47421 0.155273 3.56346V17.4266C0.155273 18.5159 1.08792 19.4071 2.22781 19.4071H16.7356C17.8755 19.4071 18.8081 18.5159 18.8081 17.4266V11.4853H16.7356V17.4266ZM12.5905 11.4853V15.4462H14.663V11.4853H12.5905ZM8.44543 15.4462H10.518V7.52437H8.44543V15.4462ZM6.37289 15.4462V9.50482H4.30035V15.4462H6.37289Z" />
    </symbol>
    <symbol id="users" viewBox="0 0 20 16">
      <path fill-rule="evenodd" clip-rule="evenodd"
        d="M14.1025 8.99243C15.3059 9.80932 16.1492 10.9161 16.1492 12.3918V15.0269H19.6627V12.3918C19.6627 10.4769 16.5269 9.34378 14.1025 8.99243Z" />
      <path
        d="M7.36508 7.99993C9.30554 7.99993 10.8786 6.42687 10.8786 4.48641C10.8786 2.54595 9.30554 0.9729 7.36508 0.9729C5.42462 0.9729 3.85156 2.54595 3.85156 4.48641C3.85156 6.42687 5.42462 7.99993 7.36508 7.99993Z" />
      <path fill-rule="evenodd" clip-rule="evenodd"
        d="M12.635 7.99993C14.5763 7.99993 16.1486 6.42763 16.1486 4.48641C16.1486 2.5452 14.5763 0.9729 12.635 0.9729C12.2222 0.9729 11.8357 1.06074 11.4668 1.18371C12.1959 2.08844 12.635 3.23912 12.635 4.48641C12.635 5.73371 12.1959 6.88439 11.4668 7.78912C11.8357 7.91209 12.2222 7.99993 12.635 7.99993Z" />
      <path fill-rule="evenodd" clip-rule="evenodd"
        d="M7.36492 8.87842C5.01965 8.87842 0.337891 10.0554 0.337891 12.3919V15.0271H14.3919V12.3919C14.3919 10.0554 9.71019 8.87842 7.36492 8.87842Z" />
    </symbol>
    <symbol id="burger" viewBox="0 0 24 24">
      <path
        d="M0 24H24V21.3333H0V24ZM0 6.66667V17.3333L5.33333 12L0 6.66667ZM10.6667 18.6667H24V16H10.6667V18.6667ZM0 0V2.66667H24V0H0ZM10.6667 8H24V5.33333H10.6667V8ZM10.6667 13.3333H24V10.6667H10.6667V13.3333Z" />
    </symbol>
    <symbol id="loop" viewBox="0 0 24 24">
      <path
        d="M22.1333 24L13.7333 15.6C13.0667 16.1333 12.3 16.5556 11.4333 16.8667C10.5667 17.1778 9.64444 17.3333 8.66667 17.3333C6.24444 17.3333 4.19467 16.4942 2.51733 14.816C0.84 13.1378 0.000888889 11.088 0 8.66667C0 6.24444 0.839111 4.19467 2.51733 2.51733C4.19556 0.84 6.24533 0.000888889 8.66667 0C11.0889 0 13.1387 0.839111 14.816 2.51733C16.4933 4.19556 17.3324 6.24533 17.3333 8.66667C17.3333 9.64444 17.1778 10.5667 16.8667 11.4333C16.5556 12.3 16.1333 13.0667 15.6 13.7333L24 22.1333L22.1333 24ZM8.66667 14.6667C10.3333 14.6667 11.7502 14.0831 12.9173 12.916C14.0844 11.7489 14.6676 10.3324 14.6667 8.66667C14.6667 7 14.0831 5.58311 12.916 4.416C11.7489 3.24889 10.3324 2.66578 8.66667 2.66667C7 2.66667 5.58311 3.25022 4.416 4.41733C3.24889 5.58444 2.66578 7.00089 2.66667 8.66667C2.66667 10.3333 3.25022 11.7502 4.41733 12.9173C5.58444 14.0844 7.00089 14.6676 8.66667 14.6667Z" />
    </symbol>
    <svg id="play" viewBox="0 0 72 72">
      <path
        d="M28.8 52.2L50.4 36L28.8 19.8V52.2ZM36 0C16.128 0 0 16.128 0 36C0 55.872 16.128 72 36 72C55.872 72 72 55.872 72 36C72 16.128 55.872 0 36 0ZM36 64.8C20.124 64.8 7.2 51.876 7.2 36C7.2 20.124 20.124 7.2 36 7.2C51.876 7.2 64.8 20.124 64.8 36C64.8 51.876 51.876 64.8 36 64.8Z"
        fill="#F7F3F3" />
    </svg>
  </defs>
</svg>