<svg width="233" height="42" viewBox="0 0 233 42" fill="none" xmlns="http://www.w3.org/2000/svg">
  <g clip-path="url(#clip0_204_58)">
    <rect x="1" width="233" height="42" rx="21" fill="#D9D9D9" />
    <path
      d="M90.25 9.125C89.9583 9.79167 89.6979 10.375 89.4688 10.875C89.2396 11.375 89.0417 11.8021 88.875 12.1562C88.6875 12.5521 88.5312 12.9062 88.4062 13.2188C88.3021 13.4479 88.1667 13.7604 88 14.1562C87.8333 14.5104 87.625 14.9792 87.375 15.5625C87.1458 16.125 86.8438 16.8542 86.4688 17.75C86.2812 16.9792 86.0521 16.3021 85.7812 15.7188C85.5104 15.1354 85.2188 14.625 84.9062 14.1875C84.5938 13.75 84.2604 13.3958 83.9062 13.125C83.5729 12.8333 83.2396 12.5938 82.9062 12.4062C82.1354 11.9896 81.3229 11.7604 80.4688 11.7188C79.3438 11.7812 78.4583 11.9688 77.8125 12.2812C77.1875 12.5729 76.7292 12.9167 76.4375 13.3125C76.1458 13.6875 75.9896 14.0833 75.9688 14.5C75.9479 14.8958 76 15.2292 76.125 15.5C76.2292 15.75 76.5938 16.0417 77.2188 16.375C77.8646 16.7083 78.6354 17.0938 79.5312 17.5312C80.4479 17.9479 81.4271 18.4271 82.4688 18.9688C83.5104 19.4896 84.4688 20.0729 85.3438 20.7188C86.2396 21.3438 86.9896 22.0312 87.5938 22.7812C88.2188 23.5104 88.5625 24.2917 88.625 25.125C88.6875 26.1875 88.6771 27.1458 88.5938 28C88.5104 28.8542 88.2188 29.5833 87.7188 30.1875C87.2188 30.7917 86.4375 31.2708 85.375 31.625C84.3333 31.9792 82.8854 32.1979 81.0312 32.2812C79.1146 32.3646 77.5417 32.2604 76.3125 31.9688C75.0833 31.6771 74.0833 31.2812 73.3125 30.7812C72.5625 30.2812 72 29.7292 71.625 29.125C71.2708 28.5208 71.0104 27.9479 70.8438 27.4062C70.6771 26.8438 70.5625 26.3646 70.5 25.9688C70.4375 25.5521 70.3333 25.3021 70.1875 25.2188C70.0208 25.1146 69.8542 25.0208 69.6875 24.9375C69.5417 24.8542 69.3854 24.7812 69.2188 24.7188C69.0521 24.6354 68.8854 24.5625 68.7188 24.5L77.8125 23.0312C77.2917 23.4479 76.8854 23.8333 76.5938 24.1875C76.3229 24.5417 76.1146 24.8542 75.9688 25.125C75.8021 25.4375 75.6875 25.7292 75.625 26C75.5833 26.2917 75.6771 26.6562 75.9062 27.0938C76.1354 27.5312 76.4479 27.9583 76.8438 28.375C77.2604 28.7708 77.7396 29.1042 78.2812 29.375C78.8229 29.6458 79.3854 29.7604 79.9688 29.7188C80.6979 29.6562 81.2917 29.4792 81.75 29.1875C82.2083 28.875 82.5521 28.4896 82.7812 28.0312C83.0312 27.5729 83.1771 27.0729 83.2188 26.5312C83.2604 25.9896 83.2083 25.4583 83.0625 24.9375C82.9375 24.3958 82.7292 23.8958 82.4375 23.4375C82.1458 22.9583 81.8021 22.5625 81.4062 22.25C81.0521 22 80.5 21.7604 79.75 21.5312C79.0208 21.3021 78.1979 21.0521 77.2812 20.7812C76.3854 20.5104 75.4583 20.1979 74.5 19.8438C73.5625 19.4896 72.7083 19.0521 71.9375 18.5312C71.1875 18.0104 70.5833 17.3958 70.125 16.6875C69.6875 15.9792 69.5208 15.125 69.625 14.125C69.7083 13.2708 69.9792 12.5625 70.4375 12C70.9167 11.4167 71.5104 10.9583 72.2188 10.625C72.9479 10.2708 73.75 10.0104 74.625 9.84375C75.5208 9.67708 76.4271 9.58333 77.3438 9.5625C78.2812 9.52083 79.1979 9.53125 80.0938 9.59375C81.0104 9.65625 81.8333 9.72917 82.5625 9.8125C83.2917 9.89583 83.9062 9.97917 84.4062 10.0625C84.9271 10.125 85.25 10.1667 85.375 10.1875C85.9167 10.2292 86.4583 10.2188 87 10.1562C87.4792 10.1146 88 10.0208 88.5625 9.875C89.1458 9.70833 89.7083 9.45833 90.25 9.125ZM98.375 26.9688C98.9583 26.9688 99.5 26.9062 100 26.7812C100.417 26.6771 100.812 26.5104 101.188 26.2812C101.583 26.0312 101.844 25.6667 101.969 25.1875C102.385 25.2708 102.74 25.3438 103.031 25.4062C103.323 25.4479 103.573 25.4896 103.781 25.5312C104.01 25.5938 104.208 25.6354 104.375 25.6562C104.542 25.6979 104.74 25.7396 104.969 25.7812C105.177 25.8229 105.427 25.875 105.719 25.9375C106.031 25.9792 106.396 26.0417 106.812 26.125C106.5 26.0833 106.177 26.1146 105.844 26.2188C105.531 26.3229 105.229 26.4375 104.938 26.5625C104.604 26.7083 104.292 26.8854 104 27.0938C103.812 27.2188 103.594 27.4062 103.344 27.6562C103.115 27.9062 102.781 28.1458 102.344 28.375C101.906 28.6042 101.323 28.8021 100.594 28.9688C99.8854 29.1146 98.9688 29.1667 97.8438 29.125C96.4896 29.0833 95.3542 28.8438 94.4375 28.4062C93.5208 27.9479 92.7812 27.3958 92.2188 26.75C91.6562 26.0833 91.25 25.3646 91 24.5938C90.75 23.8229 90.6146 23.1042 90.5938 22.4375C90.5729 21.7708 90.7708 21.0729 91.1875 20.3438C91.6042 19.6146 92.1875 18.9479 92.9375 18.3438C93.7083 17.7396 94.6354 17.25 95.7188 16.875C96.8021 16.4792 97.9896 16.2812 99.2812 16.2812C100.031 16.2812 100.719 16.375 101.344 16.5625C101.99 16.7292 102.573 16.9583 103.094 17.25C103.635 17.5417 104.104 17.875 104.5 18.25C104.896 18.6042 105.229 18.9688 105.5 19.3438C105.771 19.7396 106 20.1562 106.188 20.5938C106.354 20.9688 106.49 21.3958 106.594 21.875C106.698 22.3542 106.729 22.8438 106.688 23.3438C105.104 23.3854 103.823 23.4167 102.844 23.4375C101.885 23.4583 101.135 23.4688 100.594 23.4688H99.1875H98.125C97.75 23.4688 97.2604 23.4792 96.6562 23.5C96.0521 23.5208 95.3125 23.5521 94.4375 23.5938C94.5417 24.4271 94.8021 25.0729 95.2188 25.5312C95.6562 25.9688 96.1146 26.3021 96.5938 26.5312C97.1354 26.7812 97.7292 26.9271 98.375 26.9688ZM95.5625 21.3438C96.2292 21.3854 96.7812 21.4167 97.2188 21.4375C97.6771 21.4583 98.0521 21.4792 98.3438 21.5C98.6562 21.5208 98.9062 21.5312 99.0938 21.5312H99.875C100.396 21.5312 101.365 21.5 102.781 21.4375C102.719 20.5208 102.521 19.8229 102.188 19.3438C101.875 18.8646 101.542 18.5104 101.188 18.2812C100.771 18.0312 100.312 17.8854 99.8125 17.8438C98.4583 17.8646 97.4479 18.1458 96.7812 18.6875C96.1354 19.2292 95.7292 20.1146 95.5625 21.3438ZM110.281 19.3438C110.385 19.2188 110.448 18.9896 110.469 18.6562C110.51 18.3021 110.594 17.9062 110.719 17.4688C110.865 17.0312 111.104 16.5729 111.438 16.0938C111.771 15.6146 112.312 15.1667 113.062 14.75C113.792 14.3333 114.5 14.0833 115.188 14C115.875 13.9167 116.531 13.9479 117.156 14.0938C117.781 14.2396 118.365 14.4688 118.906 14.7812C119.469 15.0938 119.979 15.4375 120.438 15.8125C120.75 16.0625 121 16.4271 121.188 16.9062C121.375 17.3646 121.521 17.8854 121.625 18.4688C121.729 19.0521 121.802 19.6667 121.844 20.3125C121.906 20.9375 121.948 21.5521 121.969 22.1562C121.99 22.7396 122 23.2812 122 23.7812C122.021 24.2604 122.062 24.6562 122.125 24.9688C122.208 25.4271 122.354 25.8229 122.562 26.1562C122.771 26.4688 123 26.7396 123.25 26.9688C123.5 27.1771 123.75 27.3438 124 27.4688C124.25 27.5938 124.469 27.6875 124.656 27.75C124.781 27.8125 124.896 27.8542 125 27.875C125.208 27.9583 125.354 27.9583 125.438 27.875C125.312 28.1667 125.198 28.4167 125.094 28.625C124.99 28.8333 124.906 29.0104 124.844 29.1562C124.76 29.3229 124.688 29.4583 124.625 29.5625C124.562 29.6875 124.49 29.8021 124.406 29.9062C124.344 30.0104 124.26 30.125 124.156 30.25C124.052 30.375 123.948 30.5104 123.844 30.6562C123.573 30.5521 123.312 30.4271 123.062 30.2812C122.833 30.1354 122.625 30 122.438 29.875C122.208 29.7292 122 29.5833 121.812 29.4375C121.625 29.2917 121.448 29.125 121.281 28.9375C121.135 28.7708 120.979 28.5938 120.812 28.4062C120.667 28.2188 120.542 28.0104 120.438 27.7812C120.312 28.0521 120.01 28.4375 119.531 28.9375C119.073 29.4375 118.469 29.8958 117.719 30.3125C116.969 30.7083 116.094 30.9896 115.094 31.1562C114.115 31.3229 113.031 31.2083 111.844 30.8125C111.323 30.6458 110.833 30.4062 110.375 30.0938C109.917 29.7604 109.521 29.3646 109.188 28.9062C108.875 28.4479 108.646 27.9271 108.5 27.3438C108.375 26.7396 108.385 26.0729 108.531 25.3438C108.677 24.6146 108.938 24 109.312 23.5C109.688 23 110.135 22.5938 110.656 22.2812C111.177 21.9688 111.76 21.7292 112.406 21.5625C113.052 21.3958 113.719 21.2812 114.406 21.2188C114.948 21.1979 115.49 21.2292 116.031 21.3125C116.49 21.3958 116.969 21.5521 117.469 21.7812C117.969 21.9896 118.396 22.3125 118.75 22.75C118.729 21.6458 118.688 20.7708 118.625 20.125C118.583 19.4583 118.542 18.9479 118.5 18.5938C118.417 18.1771 118.344 17.8854 118.281 17.7188C118.177 17.5729 118.062 17.4062 117.938 17.2188C117.833 17.0312 117.698 16.8646 117.531 16.7188C117.365 16.5521 117.156 16.4167 116.906 16.3125C116.656 16.2083 116.365 16.1667 116.031 16.1875C115.677 16.2083 115.396 16.3021 115.188 16.4688C114.979 16.6354 114.812 16.8333 114.688 17.0625C114.583 17.2708 114.521 17.5 114.5 17.75C114.479 18 114.49 18.2188 114.531 18.4062C114.573 18.5312 114.635 18.6667 114.719 18.8125C114.802 18.9375 114.917 19.0729 115.062 19.2188C115.208 19.3646 115.406 19.4896 115.656 19.5938C115.177 19.6562 114.75 19.7083 114.375 19.75C114 19.7708 113.677 19.8021 113.406 19.8438C113.094 19.8854 112.823 19.9167 112.594 19.9375C112.365 19.9583 112.094 20 111.781 20.0625C111.51 20.1042 111.177 20.1562 110.781 20.2188C110.385 20.2812 109.927 20.3646 109.406 20.4688C109.531 20.3229 109.646 20.1875 109.75 20.0625C109.854 19.9167 109.948 19.7917 110.031 19.6875C110.115 19.5625 110.198 19.4479 110.281 19.3438ZM114.969 23.0625C114.594 23.0833 114.219 23.1771 113.844 23.3438C113.469 23.4896 113.135 23.7083 112.844 24C112.552 24.2708 112.302 24.5938 112.094 24.9688C111.906 25.3229 111.812 25.7188 111.812 26.1562C111.812 26.5938 111.917 26.9792 112.125 27.3125C112.354 27.625 112.646 27.8854 113 28.0938C113.375 28.3021 113.771 28.4271 114.188 28.4688C114.625 28.5104 115.052 28.4688 115.469 28.3438C115.865 28.1979 116.24 27.9688 116.594 27.6562C116.948 27.3229 117.25 26.9688 117.5 26.5938C117.75 26.1979 117.927 25.8125 118.031 25.4375C118.135 25.0417 118.146 24.7188 118.062 24.4688C117.896 23.9271 117.521 23.5521 116.938 23.3438C116.354 23.1146 115.698 23.0208 114.969 23.0625ZM138.906 14.1562C138.719 14.6146 138.552 15.0312 138.406 15.4062C138.281 15.7812 138.167 16.1146 138.062 16.4062C137.958 16.7396 137.865 17.0312 137.781 17.2812C137.698 17.5729 137.604 17.9062 137.5 18.2812C137.396 18.6146 137.26 19.0312 137.094 19.5312C136.948 20.0104 136.771 20.5833 136.562 21.25C136.396 20.25 136.094 19.4583 135.656 18.875C135.219 18.2708 134.771 17.8021 134.312 17.4688C133.771 17.0938 133.188 16.8229 132.562 16.6562C131.438 16.4688 130.625 16.4896 130.125 16.7188C129.625 16.9479 129.292 17.2396 129.125 17.5938C129.042 17.7396 128.948 17.9271 128.844 18.1562C128.76 18.3646 128.688 18.5833 128.625 18.8125C128.583 19.0417 128.573 19.2708 128.594 19.5C128.615 19.7292 128.708 19.9167 128.875 20.0625C128.979 20.1667 129.25 20.3125 129.688 20.5C130.125 20.6667 130.646 20.8646 131.25 21.0938C131.875 21.3021 132.531 21.5312 133.219 21.7812C133.927 22.0312 134.594 22.2812 135.219 22.5312C135.844 22.7812 136.385 23.0312 136.844 23.2812C137.302 23.5312 137.604 23.7604 137.75 23.9688C137.875 24.1771 138.01 24.4583 138.156 24.8125C138.323 25.1458 138.438 25.5208 138.5 25.9375C138.583 26.3333 138.604 26.75 138.562 27.1875C138.542 27.6042 138.427 28.0208 138.219 28.4375C138.01 28.8542 137.677 29.2396 137.219 29.5938C136.781 29.9479 136.188 30.2396 135.438 30.4688C134.562 30.7396 133.719 30.8125 132.906 30.6875C132.094 30.5625 131.344 30.375 130.656 30.125C129.99 29.875 129.406 29.6354 128.906 29.4062C128.406 29.1562 128.052 29.0521 127.844 29.0938C127.615 29.1354 127.354 29.25 127.062 29.4375C126.771 29.625 126.49 29.8229 126.219 30.0312C125.969 30.2188 125.75 30.3958 125.562 30.5625C125.375 30.7083 125.281 30.7604 125.281 30.7188C125.281 30.6771 125.312 30.5521 125.375 30.3438C125.458 30.1354 125.542 29.8854 125.625 29.5938C125.729 29.2812 125.823 28.9479 125.906 28.5938C126.01 28.2188 126.083 27.8646 126.125 27.5312C126.167 27.2604 126.219 26.9271 126.281 26.5312C126.323 26.1771 126.375 25.75 126.438 25.25C126.521 24.7292 126.615 24.1042 126.719 23.375C126.823 23.9167 126.969 24.3854 127.156 24.7812C127.365 25.1771 127.562 25.5208 127.75 25.8125C127.979 26.1458 128.198 26.4271 128.406 26.6562C128.719 26.9479 129.083 27.2188 129.5 27.4688C129.938 27.7188 130.375 27.9375 130.812 28.125C131.25 28.2917 131.667 28.3958 132.062 28.4375C132.458 28.4792 132.792 28.4375 133.062 28.3125C133.333 28.1875 133.562 27.9583 133.75 27.625C133.958 27.2917 134.104 26.9271 134.188 26.5312C134.271 26.1354 134.302 25.7604 134.281 25.4062C134.26 25.0312 134.167 24.7292 134 24.5C133.875 24.3542 133.583 24.1667 133.125 23.9375C132.688 23.7083 132.156 23.4583 131.531 23.1875C130.927 22.9167 130.281 22.6354 129.594 22.3438C128.927 22.0521 128.292 21.7604 127.688 21.4688C127.104 21.1562 126.615 20.8646 126.219 20.5938C125.844 20.3021 125.635 20.0417 125.594 19.8125C125.552 19.4792 125.521 19.1146 125.5 18.7188C125.479 18.3021 125.5 17.8958 125.562 17.5C125.646 17.0833 125.792 16.6875 126 16.3125C126.229 15.9375 126.562 15.625 127 15.375C127.292 15.2083 127.677 15.0833 128.156 15C128.635 14.9167 129.167 14.875 129.75 14.875C130.333 14.8542 130.938 14.875 131.562 14.9375C132.188 14.9792 132.781 15.0417 133.344 15.125C133.927 15.1875 134.448 15.2708 134.906 15.375C135.385 15.4792 135.75 15.5729 136 15.6562C136.292 15.7604 136.604 15.7708 136.938 15.6875C137.229 15.625 137.542 15.4896 137.875 15.2812C138.208 15.0729 138.552 14.6979 138.906 14.1562ZM148.406 18C148.948 18 149.51 18.1042 150.094 18.3125C150.677 18.5 151.24 18.75 151.781 19.0625C152.323 19.3542 152.812 19.6771 153.25 20.0312C153.708 20.3646 154.083 20.6875 154.375 21C154.896 21.5625 155.25 22.3229 155.438 23.2812C155.646 24.2188 155.688 25.1875 155.562 26.1875C155.438 27.1667 155.146 28.0938 154.688 28.9688C154.229 29.8438 153.594 30.4896 152.781 30.9062C152.198 31.1979 151.625 31.4271 151.062 31.5938C150.5 31.7604 149.958 31.8854 149.438 31.9688C148.917 32.0521 148.427 32.0938 147.969 32.0938C147.51 32.0938 147.115 32.0833 146.781 32.0625C146.156 32.0208 145.5 31.8021 144.812 31.4062C144.146 31.0104 143.51 30.5208 142.906 29.9375C142.323 29.3542 141.823 28.7188 141.406 28.0312C140.99 27.3229 140.74 26.6562 140.656 26.0312C140.531 25.1771 140.51 24.2812 140.594 23.3438C140.677 22.4062 140.979 21.5417 141.5 20.75C142.042 19.9583 142.854 19.3021 143.938 18.7812C145.042 18.2604 146.531 18 148.406 18ZM147.375 30.125C147.604 30.1667 147.917 30.1146 148.312 29.9688C148.708 29.8021 149.094 29.5417 149.469 29.1875C149.865 28.8333 150.208 28.3854 150.5 27.8438C150.812 27.2812 151 26.6042 151.062 25.8125C151.125 25.0417 151.125 24.3333 151.062 23.6875C151.021 23.0417 150.927 22.4792 150.781 22C150.635 21.5 150.469 21.0938 150.281 20.7812C150.094 20.4688 149.896 20.25 149.688 20.125C149.333 19.9375 148.906 19.7917 148.406 19.6875C147.906 19.5625 147.479 19.5833 147.125 19.75C146.958 19.8333 146.75 20.0104 146.5 20.2812C146.25 20.5521 146 20.8958 145.75 21.3125C145.5 21.7083 145.271 22.1667 145.062 22.6875C144.875 23.2083 144.74 23.75 144.656 24.3125C144.573 24.875 144.552 25.4792 144.594 26.125C144.656 26.7708 144.792 27.3854 145 27.9688C145.208 28.5312 145.5 29.0208 145.875 29.4375C146.271 29.8333 146.771 30.0625 147.375 30.125ZM158.031 28.5625C158.177 27.875 158.281 27.2708 158.344 26.75C158.427 26.2083 158.49 25.7604 158.531 25.4062C158.573 24.9896 158.594 24.6354 158.594 24.3438C158.573 23.9896 158.552 23.5729 158.531 23.0938C158.531 22.5938 158.51 22.1042 158.469 21.625C158.448 21.125 158.417 20.6875 158.375 20.3125C158.333 19.9167 158.281 19.6354 158.219 19.4688C158.135 19.3021 158.021 19.125 157.875 18.9375C157.583 18.5833 157.156 18.2396 156.594 17.9062C157.073 17.8021 157.479 17.7188 157.812 17.6562C158.167 17.5729 158.458 17.5 158.688 17.4375C158.938 17.3542 159.156 17.2812 159.344 17.2188C159.51 17.1562 159.708 17.0938 159.938 17.0312C160.125 16.9896 160.354 16.9375 160.625 16.875C160.896 16.8125 161.208 16.7396 161.562 16.6562L161.469 19.5C162.135 18.7083 162.812 18.1146 163.5 17.7188C164.188 17.3229 164.833 17.0417 165.438 16.875C166.125 16.6667 166.802 16.5625 167.469 16.5625C168.302 16.6042 169.073 16.7396 169.781 16.9688C170.51 17.1979 171.135 17.4688 171.656 17.7812C172.198 18.0729 172.635 18.3854 172.969 18.7188C173.302 19.0521 173.5 19.3438 173.562 19.5938C173.812 20.4062 173.875 21.1562 173.75 21.8438C173.625 22.5104 173.458 23.1667 173.25 23.8125C173.062 24.4375 172.896 25.0625 172.75 25.6875C172.625 26.3125 172.677 26.9896 172.906 27.7188C172.99 27.9062 173.073 28.0938 173.156 28.2812C173.24 28.4479 173.344 28.6146 173.469 28.7812C173.594 28.9479 173.74 29.0833 173.906 29.1875C173.677 29.1667 173.448 29.1562 173.219 29.1562C172.99 29.1354 172.781 29.1146 172.594 29.0938C172.365 29.0729 172.156 29.0521 171.969 29.0312C171.76 29.0104 171.479 29 171.125 29C170.521 29 169.583 29.0312 168.312 29.0938C168.5 28.6562 168.646 28.2917 168.75 28C168.875 27.6875 168.979 27.4375 169.062 27.25C169.146 27.0208 169.208 26.8438 169.25 26.7188C169.5 26.1146 169.646 25.4271 169.688 24.6562C169.75 23.8854 169.698 23.1042 169.531 22.3125C169.469 22.0417 169.365 21.7188 169.219 21.3438C169.073 20.9688 168.875 20.6042 168.625 20.25C168.396 19.8958 168.115 19.5938 167.781 19.3438C167.469 19.0938 167.104 18.9479 166.688 18.9062C166.271 18.8646 165.802 18.9688 165.281 19.2188C164.781 19.4688 164.24 19.9271 163.656 20.5938C163.219 21.1562 162.875 21.8438 162.625 22.6562C162.396 23.3438 162.24 24.2083 162.156 25.25C162.073 26.2708 162.198 27.4688 162.531 28.8438C162.24 28.8021 161.969 28.7812 161.719 28.7812C161.469 28.7604 161.26 28.7396 161.094 28.7188C160.885 28.6979 160.698 28.6771 160.531 28.6562C160.344 28.6562 160.135 28.6458 159.906 28.625C159.698 28.625 159.438 28.625 159.125 28.625C158.812 28.6042 158.448 28.5833 158.031 28.5625ZM189.594 14.1562C189.406 14.6146 189.24 15.0312 189.094 15.4062C188.969 15.7812 188.854 16.1146 188.75 16.4062C188.646 16.7396 188.552 17.0312 188.469 17.2812C188.385 17.5729 188.292 17.9062 188.188 18.2812C188.083 18.6146 187.948 19.0312 187.781 19.5312C187.635 20.0104 187.458 20.5833 187.25 21.25C187.083 20.25 186.781 19.4583 186.344 18.875C185.906 18.2708 185.458 17.8021 185 17.4688C184.458 17.0938 183.875 16.8229 183.25 16.6562C182.125 16.4688 181.312 16.4896 180.812 16.7188C180.312 16.9479 179.979 17.2396 179.812 17.5938C179.729 17.7396 179.635 17.9271 179.531 18.1562C179.448 18.3646 179.375 18.5833 179.312 18.8125C179.271 19.0417 179.26 19.2708 179.281 19.5C179.302 19.7292 179.396 19.9167 179.562 20.0625C179.667 20.1667 179.938 20.3125 180.375 20.5C180.812 20.6667 181.333 20.8646 181.938 21.0938C182.562 21.3021 183.219 21.5312 183.906 21.7812C184.615 22.0312 185.281 22.2812 185.906 22.5312C186.531 22.7812 187.073 23.0312 187.531 23.2812C187.99 23.5312 188.292 23.7604 188.438 23.9688C188.562 24.1771 188.698 24.4583 188.844 24.8125C189.01 25.1458 189.125 25.5208 189.188 25.9375C189.271 26.3333 189.292 26.75 189.25 27.1875C189.229 27.6042 189.115 28.0208 188.906 28.4375C188.698 28.8542 188.365 29.2396 187.906 29.5938C187.469 29.9479 186.875 30.2396 186.125 30.4688C185.25 30.7396 184.406 30.8125 183.594 30.6875C182.781 30.5625 182.031 30.375 181.344 30.125C180.677 29.875 180.094 29.6354 179.594 29.4062C179.094 29.1562 178.74 29.0521 178.531 29.0938C178.302 29.1354 178.042 29.25 177.75 29.4375C177.458 29.625 177.177 29.8229 176.906 30.0312C176.656 30.2188 176.438 30.3958 176.25 30.5625C176.062 30.7083 175.969 30.7604 175.969 30.7188C175.969 30.6771 176 30.5521 176.062 30.3438C176.146 30.1354 176.229 29.8854 176.312 29.5938C176.417 29.2812 176.51 28.9479 176.594 28.5938C176.698 28.2188 176.771 27.8646 176.812 27.5312C176.854 27.2604 176.906 26.9271 176.969 26.5312C177.01 26.1771 177.062 25.75 177.125 25.25C177.208 24.7292 177.302 24.1042 177.406 23.375C177.51 23.9167 177.656 24.3854 177.844 24.7812C178.052 25.1771 178.25 25.5208 178.438 25.8125C178.667 26.1458 178.885 26.4271 179.094 26.6562C179.406 26.9479 179.771 27.2188 180.188 27.4688C180.625 27.7188 181.062 27.9375 181.5 28.125C181.938 28.2917 182.354 28.3958 182.75 28.4375C183.146 28.4792 183.479 28.4375 183.75 28.3125C184.021 28.1875 184.25 27.9583 184.438 27.625C184.646 27.2917 184.792 26.9271 184.875 26.5312C184.958 26.1354 184.99 25.7604 184.969 25.4062C184.948 25.0312 184.854 24.7292 184.688 24.5C184.562 24.3542 184.271 24.1667 183.812 23.9375C183.375 23.7083 182.844 23.4583 182.219 23.1875C181.615 22.9167 180.969 22.6354 180.281 22.3438C179.615 22.0521 178.979 21.7604 178.375 21.4688C177.792 21.1562 177.302 20.8646 176.906 20.5938C176.531 20.3021 176.323 20.0417 176.281 19.8125C176.24 19.4792 176.208 19.1146 176.188 18.7188C176.167 18.3021 176.188 17.8958 176.25 17.5C176.333 17.0833 176.479 16.6875 176.688 16.3125C176.917 15.9375 177.25 15.625 177.688 15.375C177.979 15.2083 178.365 15.0833 178.844 15C179.323 14.9167 179.854 14.875 180.438 14.875C181.021 14.8542 181.625 14.875 182.25 14.9375C182.875 14.9792 183.469 15.0417 184.031 15.125C184.615 15.1875 185.135 15.2708 185.594 15.375C186.073 15.4792 186.438 15.5729 186.688 15.6562C186.979 15.7604 187.292 15.7708 187.625 15.6875C187.917 15.625 188.229 15.4896 188.562 15.2812C188.896 15.0729 189.24 14.6979 189.594 14.1562Z"
      fill="#000001" />
    <g clip-path="url(#clip1_204_58)">
      <path
        d="M24.1579 16.3357L17.7368 11.5025V30.4975L24.1579 25.6643L30.3684 21L24.1579 16.3357ZM24.1579 16.3357L17.7368 11.5025V30.4975L24.1579 25.6643L30.3684 21L24.1579 16.3357ZM24.1579 16.3357L17.7368 11.5025V30.4975L24.1579 25.6643L30.3684 21L24.1579 16.3357ZM19.8421 4.26332V0C15.6105 0.422111 11.7579 2.11055 8.6421 4.66432L11.6316 7.68241C13.9684 5.86734 16.7684 4.64322 19.8421 4.26332ZM8.66316 10.6583L5.65263 7.66131C3.10526 10.7849 1.42105 14.6472 1 18.8894H5.25263C5.63158 15.808 6.85263 13.001 8.66316 10.6583ZM5.25263 23.1106H1C1.42105 27.3528 3.10526 31.2151 5.65263 34.3387L8.66316 31.3206C6.85263 28.999 5.63158 26.192 5.25263 23.1106ZM8.6421 37.3357C11.7579 39.8894 15.6316 41.5779 19.8421 42V37.7367C16.7684 37.3568 13.9684 36.1327 11.6316 34.3176L8.6421 37.3357ZM43 21C43 31.8904 34.7474 40.8814 24.1579 42V37.7367C32.4105 36.6392 38.7895 29.5477 38.7895 21C38.7895 12.4523 32.4105 5.3608 24.1579 4.26332V0C34.7474 1.11859 43 10.1095 43 21Z"
        fill="#84853F" />
    </g>
  </g>
  <defs>
    <clipPath id="clip0_204_58">
      <rect width="233" height="42" fill="white" />
    </clipPath>
    <clipPath id="clip1_204_58">
      <rect width="48" height="48" fill="white" transform="translate(-2 -3)" />
    </clipPath>
  </defs>
</svg>