<svg xmlns="http://www.w3.org/2000/svg" aria-hidden="true" overflow="hidden" style="width: 0; height: 0; position: absolute">
  <defs>
    <symbol id="icon-screen" viewBox="0 0 40 32">
      <path d="M36.364 0H3.637C1.619 0 .001 1.582.001 3.556v21.333c0 1.956 1.618 3.556 3.636 3.556h9.091v3.556h14.545v-3.556h9.091c2 0 3.618-1.6 3.618-3.556L40 3.556C40 1.583 38.364 0 36.364 0zm0 24.889H3.637V3.556h32.727v21.333zm-9.091-10.667-12.727 7.111V7.111l12.727 7.111z"></path>
    </symbol>
    <symbol id="icon-users" viewBox="0 0 32 32">
      <path d="M16 0C7.168 0 0 7.168 0 16s7.168 16 16 16 16-7.168 16-16S24.832 0 16 0zm5.776 10.144c1.712 0 3.088 1.376 3.088 3.088s-1.376 3.088-3.088 3.088a3.08 3.08 0 0 1-3.088-3.088c-.016-1.712 1.376-3.088 3.088-3.088zm-9.6-2.528c2.08 0 3.776 1.696 3.776 3.776s-1.696 3.776-3.776 3.776A3.783 3.783 0 0 1 8.4 11.392a3.763 3.763 0 0 1 3.776-3.776zm0 14.608v6c-3.84-1.2-6.88-4.16-8.224-7.936 1.68-1.792 5.872-2.704 8.224-2.704.848 0 1.92.128 3.04.352-2.624 1.392-3.04 3.232-3.04 4.288zM16 28.8c-.432 0-.848-.016-1.264-.064v-6.512c0-2.272 4.704-3.408 7.04-3.408 1.712 0 4.672.624 6.144 1.84C26.048 25.408 21.424 28.8 16 28.8z"></path>
    </symbol>
  </defs>
</svg>
