<svg width="24" height="24" fill="none" xmlns="http://www.w3.org/2000/svg"><path d="m22.133 24-8.4-8.4a8.127 8.127 0 0 1-5.067 1.733c-2.422 0-4.471-.839-6.149-2.517C.84 13.138.001 11.088 0 8.666c0-2.422.84-4.471 2.517-6.149C4.196.84 6.245.001 8.667 0c2.422 0 4.472.84 6.149 2.517 1.677 1.679 2.516 3.728 2.517 6.15a8.127 8.127 0 0 1-1.733 5.066l8.4 8.4L22.133 24ZM8.667 14.667c1.666 0 3.083-.584 4.25-1.751 1.167-1.167 1.75-2.584 1.75-4.25s-.584-3.083-1.751-4.25c-1.167-1.167-2.584-1.75-4.25-1.75s-3.083.584-4.25 1.751c-1.167 1.167-1.75 2.584-1.75 4.25s.584 3.083 1.751 4.25c1.167 1.167 2.584 1.75 4.25 1.75Z" fill="#fff"/></svg>